<svg xmlns="http://www.w3.org/2000/svg" xmlns:xlink="http://www.w3.org/1999/xlink" viewBox="0 0 50 50"><defs><style>.cls-1{fill:url(#linear-gradient);}.cls-2{fill:url(#linear-gradient-2);}.cls-3{fill:url(#linear-gradient-3);}.cls-4{fill:url(#linear-gradient-4);}</style><linearGradient id="linear-gradient" x1="43.06" y1="47.48" x2="-9.01" y2="11.49" gradientUnits="userSpaceOnUse"><stop offset="0" stop-color="#7f47dd"/><stop offset="0.54" stop-color="#3799ff"/><stop offset="1" stop-color="#00e8ff"/></linearGradient><linearGradient id="linear-gradient-2" x1="48.2" y1="40.05" x2="-3.87" y2="4.06" xlink:href="#linear-gradient"/><linearGradient id="linear-gradient-3" x1="52.55" y1="33.75" x2="0.48" y2="-2.24" xlink:href="#linear-gradient"/><linearGradient id="linear-gradient-4" x1="47.74" y1="40.72" x2="-4.33" y2="4.73" xlink:href="#linear-gradient"/></defs><title>rc-colored</title><g id="Layer_2" data-name="Layer 2"><g id="Layer_1-2" data-name="Layer 1"><path class="cls-1" d="M13.22,28.58c.06.09,5.3,8,3.23,16.92a22.43,22.43,0,0,1-7.64-5.3,81.57,81.57,0,0,1,1.7-12.6,41.31,41.31,0,0,1,2.43-8.25c1.29-2.86,2.88-4.49,4.72-4.84a4.81,4.81,0,0,1,2.67.44,8.57,8.57,0,0,1,2.81,2c.59.65,1.91,2.33,1.42,4.05-.63,2.24-4.58,3.37-5.88,3.74a27,27,0,0,1-4.09.83,1.93,1.93,0,0,0-1.37,3Z"/><path class="cls-2" d="M34.67,40.48a13.76,13.76,0,0,0,3.7,2.25A22.1,22.1,0,0,1,25,47.2a22.36,22.36,0,0,1-4.87-.53,23,23,0,0,0,.58-7.39,27.33,27.33,0,0,0-1.36-6.59A30.53,30.53,0,0,0,17.83,29c.63-.14,1.27-.3,1.9-.48a20.81,20.81,0,0,0,4.73-1.89,7.72,7.72,0,0,0,3.81-4.5c.72-2.53-.11-5.34-2.28-7.71a12.41,12.41,0,0,0-4.13-3,8.52,8.52,0,0,0-4.92-.69c-3.14.6-5.67,3-7.52,7a46.07,46.07,0,0,0-2.68,9,84.14,84.14,0,0,0-1.39,8.55A22.2,22.2,0,0,1,41.24,9.86a17.07,17.07,0,0,0-7.37,4c-3.06,2.93-4.63,7-4.65,12a23.68,23.68,0,0,0,1.5,9A14.24,14.24,0,0,0,34.67,40.48Z"/><path class="cls-3" d="M47.2,25a22.14,22.14,0,0,1-5.59,14.74,10.65,10.65,0,0,1-4.44-2.19c-2.75-2.35-4.12-6.26-4.1-11.65,0-4,1.18-7.09,3.45-9.26a14,14,0,0,1,7.32-3.39A22.11,22.11,0,0,1,47.2,25Z"/><path class="cls-4" d="M25,50a24.9,24.9,0,1,1,9.73-2A24.91,24.91,0,0,1,25,50ZM25,1.45A23.55,23.55,0,1,0,48.55,25,23.57,23.57,0,0,0,25,1.45Z"/></g></g></svg>